<svg width="29" height="29" viewBox="0 0 29 29" fill="none" xmlns="http://www.w3.org/2000/svg">
<path d="M5.96979 20.3547L5.04418 20.7331H5.04418L5.96979 20.3547ZM5.56702 13.8536L4.60205 13.5912H4.60205L5.56702 13.8536ZM23.4279 13.8535L24.3928 13.5912L23.4279 13.8535ZM23.0251 20.3547L22.0995 19.9762V19.9762L23.0251 20.3547ZM16.8612 24.7612L16.7074 23.7731L16.8612 24.7612ZM12.1337 24.7612L11.9799 25.7493H11.9799L12.1337 24.7612ZM9.95025 9.60551L9.75192 8.62537L9.95025 9.60551ZM19.0446 9.60551L18.8463 10.5856L19.0446 9.60551ZM11.2646 24.6259L11.4184 23.6378L11.2646 24.6259ZM6.07761 20.6184L7.00322 20.2399H7.00322L6.07761 20.6184ZM17.7303 24.6259L17.884 25.614L17.7303 24.6259ZM22.9173 20.6184L23.8429 20.9968V20.9968L22.9173 20.6184ZM23.339 13.5269L22.3741 13.7892L23.339 13.5269ZM5.65585 13.5269L6.62081 13.7892L6.62081 13.7892L5.65585 13.5269ZM18.1856 9.88451L17.2701 9.4822L18.1856 9.88451ZM17.0229 10.0449C16.8007 10.5505 17.0305 11.1405 17.5361 11.3627C18.0417 11.5849 18.6317 11.3551 18.8539 10.8495L17.0229 10.0449ZM10.8093 9.88451L11.7248 9.4822V9.4822L10.8093 9.88451ZM10.141 10.8495C10.3632 11.3551 10.9532 11.5849 11.4588 11.3627C11.9644 11.1405 12.1942 10.5505 11.972 10.0449L10.141 10.8495ZM13.6187 4.13715L13.7869 5.1229L13.7869 5.1229L13.6187 4.13715ZM13.755 4.11388L13.5868 3.12814V3.12814L13.755 4.11388ZM15.2399 4.11388L15.0716 5.09963L15.0716 5.09963L15.2399 4.11388ZM15.3762 4.13715L15.5444 3.1514L15.5444 3.1514L15.3762 4.13715ZM18.4733 7.00894L19.45 6.79434L18.4733 7.00894ZM10.5216 7.00894L11.4983 7.22354V7.22354L10.5216 7.00894ZM17.5765 23.6378L16.7074 23.7731L17.0149 25.7493L17.884 25.614L17.5765 23.6378ZM12.2874 23.7731L11.4184 23.6378L11.1108 25.614L11.9799 25.7493L12.2874 23.7731ZM22.3741 13.7892L22.4629 14.1159L24.3928 13.5912L24.304 13.2645L22.3741 13.7892ZM22.0995 19.9762L21.9916 20.2399L23.8429 20.9968L23.9507 20.7331L22.0995 19.9762ZM7.00322 20.2399L6.8954 19.9762L5.04418 20.7331L5.15199 20.9968L7.00322 20.2399ZM6.53198 14.1159L6.62081 13.7892L4.69088 13.2645L4.60205 13.5912L6.53198 14.1159ZM6.8954 19.9762C6.13094 18.1066 6.00431 16.0565 6.53198 14.1159L4.60205 13.5912C3.95861 15.9575 4.1139 18.458 5.04418 20.7331L6.8954 19.9762ZM22.4629 14.1159C22.9906 16.0565 22.8639 18.1066 22.0995 19.9762L23.9507 20.7331C24.881 18.458 25.0363 15.9575 24.3928 13.5912L22.4629 14.1159ZM16.7074 23.7731C15.2438 24.0008 13.7511 24.0008 12.2874 23.7731L11.9799 25.7493C13.6473 26.0088 15.3475 26.0087 17.0149 25.7493L16.7074 23.7731ZM10.1486 10.5856C13.0159 10.0054 15.979 10.0054 18.8463 10.5856L19.243 8.62537C16.1139 7.99218 12.881 7.99218 9.75192 8.62537L10.1486 10.5856ZM11.4184 23.6378C9.3997 23.3237 7.73057 22.0188 7.00322 20.2399L5.15199 20.9968C6.15695 23.4546 8.43215 25.1972 11.1108 25.614L11.4184 23.6378ZM17.884 25.614C20.5627 25.1972 22.8379 23.4546 23.8429 20.9968L21.9916 20.2399C21.2643 22.0188 19.5952 23.3237 17.5765 23.6378L17.884 25.614ZM18.8463 10.5856C20.5883 10.9381 21.9402 12.1935 22.3741 13.7892L24.304 13.2645C23.6615 10.9015 21.6877 9.12008 19.243 8.62537L18.8463 10.5856ZM9.75192 8.62537C7.30717 9.12008 5.3334 10.9015 4.69088 13.2645L6.62081 13.7892C7.05471 12.1935 8.40662 10.9381 10.1486 10.5856L9.75192 8.62537ZM17.2701 9.4822L17.0229 10.0449L18.8539 10.8495L19.1011 10.2868L17.2701 9.4822ZM9.89375 10.2868L10.141 10.8495L11.972 10.0449L11.7248 9.4822L9.89375 10.2868ZM13.7869 5.1229L13.9233 5.09963L13.5868 3.12814L13.4505 3.15141L13.7869 5.1229ZM15.0716 5.09963L15.2079 5.1229L15.5444 3.1514L15.4081 3.12814L15.0716 5.09963ZM17.4966 7.22354C17.6627 7.97969 17.5845 8.76674 17.2701 9.4822L19.1011 10.2868C19.5851 9.18555 19.7076 7.9666 19.45 6.79434L17.4966 7.22354ZM9.5449 6.79434C9.28733 7.9666 9.40981 9.18555 9.89375 10.2868L11.7248 9.4822C11.4104 8.76674 11.3322 7.97969 11.4983 7.22354L9.5449 6.79434ZM13.9233 5.09963C14.303 5.03482 14.6919 5.03482 15.0716 5.09963L15.4081 3.12814C14.8057 3.02532 14.1892 3.02532 13.5868 3.12814L13.9233 5.09963ZM19.45 6.79434C19.0345 4.90354 17.4716 3.48032 15.5444 3.1514L15.2079 5.1229C16.3776 5.32252 17.2655 6.17191 17.4966 7.22354L19.45 6.79434ZM11.4983 7.22354C11.7294 6.17191 12.6173 5.32252 13.7869 5.1229L13.4505 3.15141C11.5233 3.48032 9.96035 4.90354 9.5449 6.79434L11.4983 7.22354Z" fill="#121212"/>
</svg>
