<svg width="25" height="29" viewBox="0 0 25 29" fill="none" xmlns="http://www.w3.org/2000/svg">
<path d="M8.26264 22.6992L8.43022 21.2086L6.63556 21.0068L6.7666 22.808L8.26264 22.6992ZM16.5707 22.6992L18.0667 22.808L18.1978 21.0068L16.4031 21.2086L16.5707 22.6992ZM16.4447 23.4961L17.9013 23.8543L16.4447 23.4961ZM16.3308 23.9591L14.8742 23.601L14.8742 23.601L16.3308 23.9591ZM13.3943 26.8847L13.7433 28.3435H13.7433L13.3943 26.8847ZM11.4391 26.8847L11.0901 28.3435H11.0901L11.4391 26.8847ZM8.50253 23.9591L7.04592 24.3173H7.04592L8.50253 23.9591ZM8.38869 23.4961L9.8453 23.138L8.38869 23.4961ZM4.12194 9.82304L5.56974 10.2153L4.12194 9.82304ZM9.85886 3.80865L10.3214 5.23555L9.85886 3.80865ZM3.30208 12.8489L1.85429 12.4566L1.84501 12.4908L1.83737 12.5255L3.30208 12.8489ZM2.65305 15.7882L4.11777 16.1116L2.65305 15.7882ZM4.48277 22.0794L4.7822 20.6096L4.48277 22.0794ZM4.99331 22.1834L5.29275 20.7136H5.29274L4.99331 22.1834ZM19.84 22.1834L19.5406 20.7136L19.5406 20.7136L19.84 22.1834ZM20.3506 22.0794L20.65 23.5492L20.3506 22.0794ZM22.1803 15.7882L20.7156 16.1116L20.7156 16.1116L22.1803 15.7882ZM21.5313 12.8489L22.996 12.5255L22.9896 12.4967L22.9822 12.4682L21.5313 12.8489ZM20.7213 9.76159L19.2704 10.1423V10.1423L20.7213 9.76159ZM15.1487 3.81719L15.6191 2.39286V2.39286L15.1487 3.81719ZM22.7956 18.5408L21.3136 18.7728L22.7956 18.5408ZM2.03777 18.5408L0.555813 18.3088L2.03777 18.5408ZM13.9167 2C13.9167 1.17157 13.2451 0.5 12.4167 0.5C11.5882 0.5 10.9167 1.17157 10.9167 2H13.9167ZM10.9167 3.39547C10.9167 4.2239 11.5882 4.89547 12.4167 4.89547C13.2451 4.89547 13.9167 4.2239 13.9167 3.39547H10.9167ZM8.09506 24.1898C10.9671 24.5127 13.8662 24.5127 16.7383 24.1898L16.4031 21.2086C13.7538 21.5064 11.0796 21.5064 8.43022 21.2086L8.09506 24.1898ZM17.9013 23.8543C17.9858 23.5105 18.0411 23.1605 18.0667 22.808L15.0746 22.5903C15.0612 22.7749 15.0323 22.9581 14.988 23.138L17.9013 23.8543ZM17.7874 24.3173L17.9013 23.8543L14.988 23.138L14.8742 23.601L17.7874 24.3173ZM13.7433 28.3435C15.739 27.8661 17.2974 26.3102 17.7874 24.3173L14.8742 23.601C14.6509 24.5091 13.9429 25.2111 13.0453 25.4258L13.7433 28.3435ZM11.0901 28.3435C11.9623 28.5522 12.8711 28.5522 13.7433 28.3435L13.0453 25.4258C12.632 25.5247 12.2014 25.5247 11.788 25.4258L11.0901 28.3435ZM7.04592 24.3173C7.53597 26.3102 9.09435 27.8661 11.0901 28.3435L11.788 25.4258C10.8904 25.2111 10.1825 24.5091 9.95914 23.601L7.04592 24.3173ZM6.93208 23.8543L7.04592 24.3173L9.95914 23.601L9.8453 23.138L6.93208 23.8543ZM6.7666 22.808C6.79224 23.1605 6.84755 23.5106 6.93208 23.8543L9.8453 23.138C9.80107 22.9581 9.77212 22.7749 9.75869 22.5903L6.7666 22.808ZM5.56974 10.2153C6.20609 7.86672 8.01047 5.98465 10.3214 5.23555L9.39633 2.38174C6.12846 3.44103 3.57758 6.09643 2.67414 9.43076L5.56974 10.2153ZM4.74988 13.2412L5.56974 10.2153L2.67414 9.43076L1.85429 12.4566L4.74988 13.2412ZM4.11777 16.1116L4.7668 13.1723L1.83737 12.5255L1.18833 15.4648L4.11777 16.1116ZM3.5 19.0283C3.5 18.9404 3.50683 18.8551 3.51973 18.7728L0.555813 18.3088C0.518983 18.5441 0.5 18.7845 0.5 19.0283H3.5ZM4.7822 20.6096C4.04103 20.4586 3.5 19.801 3.5 19.0283H0.5C0.5 21.2174 2.03548 23.1116 4.18333 23.5492L4.7822 20.6096ZM5.29274 20.7136L4.7822 20.6096L4.18333 23.5492L4.69388 23.6532L5.29274 20.7136ZM19.5406 20.7136C14.8391 21.6714 9.99421 21.6714 5.29275 20.7136L4.69388 23.6532C9.79053 24.6915 15.0428 24.6915 20.1395 23.6532L19.5406 20.7136ZM20.0511 20.6096L19.5406 20.7136L20.1395 23.6532L20.65 23.5492L20.0511 20.6096ZM21.3333 19.0283C21.3333 19.801 20.7923 20.4586 20.0511 20.6096L20.65 23.5492C22.7979 23.1116 24.3333 21.2174 24.3333 19.0283H21.3333ZM21.3136 18.7728C21.3265 18.8551 21.3333 18.9404 21.3333 19.0283H24.3333C24.3333 18.7845 24.3144 18.5441 24.2775 18.3088L21.3136 18.7728ZM20.0665 13.1723L20.7156 16.1116L23.645 15.4648L22.996 12.5255L20.0665 13.1723ZM19.2704 10.1423L20.0804 13.2296L22.9822 12.4682L22.1722 9.38093L19.2704 10.1423ZM14.6783 5.24152C16.9334 5.98629 18.6635 7.8293 19.2704 10.1423L22.1722 9.38093C21.3086 6.08969 18.8439 3.45787 15.6191 2.39286L14.6783 5.24152ZM10.3214 5.23555C11.7358 4.77707 13.2732 4.77746 14.6783 5.24152L15.6191 2.39286C13.6016 1.72656 11.4106 1.7288 9.39633 2.38174L10.3214 5.23555ZM24.2775 18.3088C24.1263 17.3429 23.8126 16.2238 23.645 15.4648L20.7156 16.1116C20.9478 17.1633 21.178 17.9065 21.3136 18.7728L24.2775 18.3088ZM1.18833 15.4648C1.02074 16.2238 0.706998 17.343 0.555813 18.3088L3.51973 18.7728C3.65532 17.9065 3.88555 17.1633 4.11777 16.1116L1.18833 15.4648ZM10.9167 2V3.39547H13.9167V2H10.9167Z" fill="#121212"/>
</svg>
