<svg width="24" height="24" viewBox="0 0 24 24" fill="none" xmlns="http://www.w3.org/2000/svg">
<path d="M12.9353 3.57348C15.0272 2.97744 17.3294 3.47116 18.9305 5.07227C20.5316 6.67338 21.0253 8.97553 20.4293 11.0674M14.8088 6.19637C15.5559 6.04755 16.4165 6.30532 17.057 6.94576C17.6974 7.5862 17.9552 8.44678 17.8064 9.19395" stroke="white" stroke-width="2" stroke-linecap="round" stroke-linejoin="round"/>
<path d="M15.0297 20.6274C15.8824 20.7776 16.759 20.7776 17.6117 20.6274C18.9822 20.3859 20.0861 19.4657 20.4663 18.248L20.547 17.9897C20.6308 17.7212 20.6733 17.4435 20.6733 17.1645C20.6733 15.934 19.5729 14.9365 18.2155 14.9365H14.4259C13.0684 14.9365 11.968 15.934 11.968 17.1645C11.968 17.4435 12.0105 17.7212 12.0943 17.9897L12.175 18.248C12.5552 19.4657 13.6592 20.3859 15.0297 20.6274ZM15.0297 20.6274C9.10678 19.5299 4.47276 14.8959 3.37532 8.973M3.37532 8.973C3.22507 8.12033 3.22507 7.24371 3.37532 6.39103C3.61683 5.02051 4.53695 3.91659 5.7547 3.53635L6.013 3.45569C6.28149 3.37186 6.55918 3.32934 6.83822 3.32934C8.06871 3.32934 9.06621 4.42977 9.06621 5.78721L9.0662 9.57682C9.06621 10.9343 8.06871 12.0347 6.83822 12.0347C6.55918 12.0347 6.28148 11.9922 6.013 11.9083L5.7547 11.8277C4.53694 11.4474 3.61682 10.3435 3.37532 8.973Z" stroke="white" stroke-width="2"/>
</svg>
