<svg width="25" height="20" viewBox="0 0 25 20" fill="none" xmlns="http://www.w3.org/2000/svg">
<path d="M19.2016 16.5476L11.8441 15.5287L8.96091 12.6459C8.85416 12.5389 8.85374 12.3646 8.95973 12.2583C9.02948 12.1887 9.11109 12.1782 9.15351 12.1782C9.19566 12.1782 9.27676 12.1886 9.34576 12.2577L11.5261 14.438C11.5323 14.4442 11.5397 14.4499 11.5461 14.4561C11.5555 14.4648 11.5649 14.4739 11.5748 14.4819C11.8948 14.7776 12.3023 14.9273 12.711 14.9273C13.1402 14.9273 13.5699 14.7641 13.8971 14.4376C14.5499 13.7836 14.5498 12.72 13.8966 12.0668L7.91253 6.08247C7.79341 5.96336 7.63197 5.89648 7.46351 5.89648H1.06229C0.71156 5.89648 0.427368 6.18076 0.427368 6.53141C0.427368 6.88205 0.71156 7.16633 1.06229 7.16633H7.20056L12.9986 12.9644C13.1571 13.1229 13.1569 13.3813 12.9991 13.5394C12.8405 13.6977 12.5821 13.6977 12.4235 13.5394L12.4227 13.5386L10.245 11.3611L10.2441 11.3602L10.2433 11.3594C9.95241 11.0685 9.56536 10.9083 9.15351 10.9083C8.74131 10.9083 8.35375 11.0687 8.06161 11.3606C7.4768 11.9465 7.46342 12.8898 8.01826 13.4943C8.02199 13.4989 8.02639 13.503 8.0302 13.5074C8.04095 13.5189 8.05035 13.531 8.06144 13.5421L11.097 16.5773C11.1947 16.6751 11.3217 16.7383 11.4588 16.7573L19.0218 17.8046C19.1643 17.8257 19.4336 17.9208 19.4336 18.1311C19.4338 18.2458 19.3754 18.3213 19.3406 18.3562C19.3056 18.3912 19.2297 18.4499 19.1145 18.4499H10.6559L3.92377 11.7169C3.80474 11.5978 3.64321 11.5309 3.47475 11.5309H1.06229C0.71156 11.5309 0.427368 11.8152 0.427368 12.1658C0.427368 12.5164 0.71156 12.8007 1.06229 12.8007H3.2118L9.94394 19.5337C10.063 19.6527 10.2245 19.7197 10.393 19.7197H19.1145C19.5394 19.7197 19.9387 19.5542 20.2389 19.2537C20.5389 18.9534 20.7039 18.5542 20.7034 18.1304C20.7034 17.3291 20.0882 16.6785 19.2016 16.5476Z" fill="white"/>
<path d="M20.4218 0.217316C19.4577 0.217316 18.505 0.575497 17.7661 1.19755C17.0272 0.575413 16.0748 0.217316 15.111 0.217316C12.9366 0.217316 11.2333 1.9206 11.2333 4.09509C11.2333 6.67703 13.4435 8.63556 16.5051 11.343L17.3178 12.1534C17.4417 12.277 17.6039 12.3387 17.7661 12.3387C17.9283 12.3387 18.0904 12.277 18.2142 12.1536L19.0279 11.3431C22.0892 8.63581 24.2995 6.67712 24.2995 4.09509C24.2995 1.9206 22.5961 0.217316 20.4218 0.217316ZM18.1724 10.4044C18.163 10.4127 18.1538 10.4213 18.145 10.4302L17.7663 10.8073L17.3882 10.4304C17.3793 10.4214 17.37 10.4127 17.3605 10.4043C14.2583 7.66082 12.5031 6.0151 12.5031 4.09501C12.5031 2.60827 13.6242 1.48708 15.111 1.48708C15.921 1.48708 16.7527 1.87548 17.2812 2.50067C17.4019 2.64332 17.5793 2.72569 17.7661 2.72569C17.953 2.72569 18.1304 2.6434 18.251 2.50067C18.7796 1.87548 19.6115 1.48708 20.422 1.48708C21.9087 1.48708 23.0298 2.60827 23.0298 4.09501C23.0297 6.01536 21.2745 7.66099 18.1724 10.4044Z" fill="white"/>
</svg>
