<svg width="13" height="22" viewBox="0 0 13 22" fill="none" xmlns="http://www.w3.org/2000/svg">
<path d="M12.7564 14.176C12.7564 15.008 12.5404 15.792 12.1084 16.528C11.6924 17.248 11.0684 17.848 10.2364 18.328C9.42044 18.792 8.45244 19.064 7.33244 19.144V21.088H5.79644V19.12C4.19644 18.976 2.90844 18.496 1.93244 17.68C0.956438 16.848 0.452438 15.728 0.420438 14.32H4.02044C4.11644 15.472 4.70844 16.168 5.79644 16.408V11.824C4.64444 11.536 3.71644 11.248 3.01244 10.96C2.30844 10.672 1.70044 10.208 1.18844 9.568C0.676438 8.928 0.420438 8.056 0.420438 6.952C0.420438 5.56 0.916438 4.424 1.90844 3.544C2.91644 2.664 4.21244 2.16 5.79644 2.032V0.0879989H7.33244V2.032C8.86844 2.16 10.0924 2.624 11.0044 3.424C11.9324 4.224 12.4524 5.328 12.5644 6.736H8.94044C8.89244 6.272 8.72444 5.872 8.43644 5.536C8.16444 5.184 7.79644 4.936 7.33244 4.792V9.328C8.53244 9.632 9.47644 9.928 10.1644 10.216C10.8684 10.488 11.4764 10.944 11.9884 11.584C12.5004 12.208 12.7564 13.072 12.7564 14.176ZM3.92444 6.784C3.92444 7.312 4.08444 7.744 4.40444 8.08C4.72444 8.4 5.18844 8.664 5.79644 8.872V4.72C5.22044 4.8 4.76444 5.016 4.42844 5.368C4.09244 5.72 3.92444 6.192 3.92444 6.784ZM7.33244 16.456C7.94044 16.344 8.41244 16.096 8.74844 15.712C9.10044 15.328 9.27644 14.864 9.27644 14.32C9.27644 13.792 9.10844 13.368 8.77244 13.048C8.43644 12.728 7.95644 12.464 7.33244 12.256V16.456Z" fill="white"/>
</svg>
