<svg width="14" height="22" viewBox="0 0 14 22" fill="none" xmlns="http://www.w3.org/2000/svg">
<path d="M13.2564 14.176C13.2564 15.008 13.0404 15.792 12.6084 16.528C12.1924 17.248 11.5684 17.848 10.7364 18.328C9.92044 18.792 8.95244 19.064 7.83244 19.144V21.088H6.29644V19.12C4.69644 18.976 3.40844 18.496 2.43244 17.68C1.45644 16.848 0.952438 15.728 0.920438 14.32H4.52044C4.61644 15.472 5.20844 16.168 6.29644 16.408V11.824C5.14444 11.536 4.21644 11.248 3.51244 10.96C2.80844 10.672 2.20044 10.208 1.68844 9.568C1.17644 8.928 0.920438 8.056 0.920438 6.952C0.920438 5.56 1.41644 4.424 2.40844 3.544C3.41644 2.664 4.71244 2.16 6.29644 2.032V0.0879989H7.83244V2.032C9.36844 2.16 10.5924 2.624 11.5044 3.424C12.4324 4.224 12.9524 5.328 13.0644 6.736H9.44044C9.39244 6.272 9.22444 5.872 8.93644 5.536C8.66444 5.184 8.29644 4.936 7.83244 4.792V9.328C9.03244 9.632 9.97644 9.928 10.6644 10.216C11.3684 10.488 11.9764 10.944 12.4884 11.584C13.0004 12.208 13.2564 13.072 13.2564 14.176ZM4.42444 6.784C4.42444 7.312 4.58444 7.744 4.90444 8.08C5.22444 8.4 5.68844 8.664 6.29644 8.872V4.72C5.72044 4.8 5.26444 5.016 4.92844 5.368C4.59244 5.72 4.42444 6.192 4.42444 6.784ZM7.83244 16.456C8.44044 16.344 8.91244 16.096 9.24844 15.712C9.60044 15.328 9.77644 14.864 9.77644 14.32C9.77644 13.792 9.60844 13.368 9.27244 13.048C8.93644 12.728 8.45644 12.464 7.83244 12.256V16.456Z" fill="white"/>
</svg>
