<svg width="18" height="22" viewBox="0 0 18 22" fill="none" xmlns="http://www.w3.org/2000/svg">
<path d="M1.07129 18.7403C1.07129 16.1261 2.91006 13.8994 5.409 13.4874L5.63409 13.4503C7.63512 13.1204 9.67412 13.1204 11.6751 13.4503L11.9002 13.4874C14.3992 13.8994 16.238 16.1261 16.238 18.7403C16.238 19.8702 15.3513 20.7862 14.2575 20.7862H3.05176C1.95798 20.7862 1.07129 19.8702 1.07129 18.7403Z" stroke="white" stroke-width="2"/>
<path d="M13.0783 5.55185C13.0783 7.90769 11.0977 9.81748 8.65464 9.81748C6.21155 9.81748 4.23103 7.90769 4.23103 5.55185C4.23103 3.19601 6.21155 1.28622 8.65464 1.28622C11.0977 1.28622 13.0783 3.19601 13.0783 5.55185Z" stroke="white" stroke-width="2"/>
</svg>
