<svg width="22" height="22" viewBox="0 0 22 22" fill="none" xmlns="http://www.w3.org/2000/svg">
<path d="M5.31785 9.31254V11.7862M16.6073 9.31254V11.7862M16.6073 11.7862V18.7862C16.6073 19.8908 15.7119 20.7862 14.6073 20.7862H7.31785C6.21328 20.7862 5.31785 19.8908 5.31785 18.7862V11.7862M16.6073 11.7862H17.7126C19.3694 11.7862 20.7126 10.4431 20.7126 8.78623V5.28622C20.7126 3.07709 18.9217 1.28622 16.7126 1.28622H15.5547C15.0024 1.28622 14.5547 1.73394 14.5547 2.28622V3.78622C14.5547 4.89079 13.6593 5.78623 12.5547 5.78623H9.88364C8.77907 5.78623 7.88364 4.89079 7.88364 3.78622V2.28622C7.88364 1.73394 7.43592 1.28622 6.88364 1.28622H5.21259C3.00345 1.28622 1.21259 3.07709 1.21259 5.28622V8.78623C1.21259 10.4431 2.55573 11.7862 4.21259 11.7862H5.31785" stroke="white" stroke-width="2"/>
</svg>
