<svg width="28" height="21" viewBox="0 0 28 21" fill="none" xmlns="http://www.w3.org/2000/svg">
<path d="M1.28625 19.4619L8.25054 12.0333L12.8934 16.2119L21.7148 5.99762" stroke="#CFCFCF" stroke-width="2"/>
<path d="M22.7144 5.94676C22.6854 5.39524 22.2147 4.97168 21.6632 5.0007L12.6757 5.47373C12.1241 5.50276 11.7006 5.97339 11.7296 6.52491C11.7586 7.07643 12.2293 7.5 12.7808 7.47097L20.7697 7.0505L21.1902 15.0394C21.2192 15.591 21.6899 16.0145 22.2414 15.9855C22.7929 15.9565 23.2165 15.4858 23.1874 14.9343L22.7144 5.94676ZM14.1019 15.954L22.4591 6.66829L20.9725 5.33036L12.6153 14.6161L14.1019 15.954Z" fill="white"/>
</svg>
